<?xml version="1.0" standalone="no"?>
<!DOCTYPE svg PUBLIC "-//W3C//DTD SVG 20010904//EN"
 "http://www.w3.org/TR/2001/REC-SVG-20010904/DTD/svg10.dtd">
<svg version="1.0" xmlns="http://www.w3.org/2000/svg"
 width="100.000000pt" height="100.000000pt" viewBox="0 0 100.000000 100.000000"
 preserveAspectRatio="xMidYMid meet">
<metadata>
Created by potrace 1.15, written by Peter Selinger 2001-2017
</metadata>
<g transform="translate(0.000000,100.000000) scale(0.100000,-0.100000)"
fill="#000000" stroke="none">
<path d="M399 927 c-123 -46 -200 -144 -215 -271 -11 -93 53 -235 199 -437 34
-47 74 -101 89 -120 l28 -34 27 34 c167 205 292 432 293 527 0 60 -38 159 -79
205 -61 70 -130 102 -226 106 -50 2 -93 -2 -116 -10z m196 -81 c59 -27 118
-88 135 -141 17 -53 8 -130 -24 -200 -23 -51 -141 -236 -191 -299 -18 -24 -12
-31 -120 129 -121 180 -155 280 -125 370 28 86 139 165 230 165 26 0 66 -10
95 -24z"/>
<path d="M433 719 l-63 -42 0 -88 0 -89 130 0 130 0 0 89 0 89 -63 41 c-35 22
-65 41 -68 41 -2 0 -32 -19 -66 -41z"/>
</g>
</svg>
