<?xml version="1.0" standalone="no"?>
<!DOCTYPE svg PUBLIC "-//W3C//DTD SVG 20010904//EN"
 "http://www.w3.org/TR/2001/REC-SVG-20010904/DTD/svg10.dtd">
<svg version="1.0" xmlns="http://www.w3.org/2000/svg"
 width="100.000000pt" height="100.000000pt" viewBox="0 0 100.000000 100.000000"
 preserveAspectRatio="xMidYMid meet">
<metadata>
Created by potrace 1.15, written by Peter Selinger 2001-2017
</metadata>
<g transform="translate(0.000000,100.000000) scale(0.100000,-0.100000)"
fill="#000" stroke="none">
<path d="M231 866 c-48 -27 -50 -40 -51 -364 0 -329 3 -346 55 -370 32 -15
311 -17 320 -2 3 5 -2 21 -11 35 -16 25 -18 25 -145 25 -117 0 -129 2 -139 19
-14 26 -14 556 0 582 10 18 24 19 240 19 216 0 230 -1 240 -19 5 -11 10 -82
10 -159 0 -124 2 -140 18 -145 9 -2 25 -8 35 -12 16 -7 17 5 17 158 0 181 -6
209 -51 233 -39 20 -502 20 -538 0z"/>
<path d="M370 655 l0 -35 130 0 130 0 0 35 0 35 -130 0 -130 0 0 -35z"/>
<path d="M370 535 l0 -35 130 0 130 0 0 35 0 35 -130 0 -130 0 0 -35z"/>
<path d="M670 429 c-8 -5 -27 -13 -43 -19 -16 -6 -31 -21 -37 -37 -6 -16 -15
-36 -20 -45 -6 -10 -10 -29 -10 -42 0 -36 36 -113 59 -128 20 -12 19 -14 -21
-55 l-42 -43 32 0 c29 0 32 -3 32 -30 0 -17 3 -30 7 -30 4 0 27 19 50 42 l43
42 43 -42 c23 -23 46 -42 50 -42 4 0 7 13 7 30 0 27 3 30 32 30 l32 0 -42 43
c-39 40 -41 43 -22 54 22 14 60 96 59 127 0 11 -10 41 -22 66 -17 34 -33 50
-67 67 -47 23 -95 28 -120 12z m119 -114 c25 -71 -33 -129 -104 -104 -33 12
-58 63 -44 90 4 8 10 22 13 32 3 9 14 17 25 17 11 0 22 4 25 9 3 4 21 3 39 -2
25 -8 38 -20 46 -42z"/>
</g>
</svg>
